<svg xmlns="http://www.w3.org/2000/svg" viewBox="0 0 64 64">
    <g data-name="Layer 2">
        <path d="M17.755 44.553a5.128 5.128 0 1 1 5.128-5.128 5.135 5.135 0 0 1-5.128 5.128zm0-8.256a3.128 3.128 0 1 0 3.128 3.128 3.131 3.131 0 0 0-3.128-3.125zm29.904 8.256a5.128 5.128 0 1 1 5.128-5.128 5.135 5.135 0 0 1-5.128 5.128zm0-8.256a3.128 3.128 0 1 0 3.128 3.128 3.132 3.132 0 0 0-3.128-3.125z"/>
        <path d="M43.5 40.427H22.915a1 1 0 0 1 0-2H43.5a1 1 0 0 1 0 2Z"/>
        <path d="M13.605 40.717h-5a4.805 4.805 0 0 1-4.719-5.725l.5-2.555a4.786 4.786 0 0 1 3.8-3.8.808.808 0 0 1 .11-.015l6.979-.565a6.929 6.929 0 0 0 3.357-1.691c1.744-1.622 8.048-6.916 15.935-6.916 9.967 0 15.584 4.636 16.193 5.166l2.748 1.954a17.671 17.671 0 0 0 2.005.612c3.072.836 4.675 1.333 4.677 2.641l.012 6.6a4 4 0 0 1-4 4.007h-3.387a1 1 0 0 1 0-2H56.2a2 2 0 0 0 2-2l-.011-6.273a20.947 20.947 0 0 0-3.2-1.043 9.812 9.812 0 0 1-2.638-.911l-2.791-1.985a.8.8 0 0 1-.091-.072c-.051-.045-5.365-4.693-14.9-4.693-7.158 0-12.964 4.884-14.574 6.381a8.922 8.922 0 0 1-4.387 2.2.7.7 0 0 1-.111.015l-6.977.565a2.8 2.8 0 0 0-2.168 2.211l-.5 2.556a2.807 2.807 0 0 0 2.756 3.343h5a1 1 0 1 1 0 2Z"/>
        <path d="M32.275 30.127h-10.94a1 1 0 0 1-.57-1.821 8.129 8.129 0 0 0 .907-.739 18.968 18.968 0 0 1 11.849-5.088.987.987 0 0 1 .8.334 1 1 0 0 1 .239.834 46.1 46.1 0 0 1-1.355 5.845 1 1 0 0 1-.93.635zm-8.188-2h7.467c.278-.961.582-2.406.8-3.533a16.92 16.92 0 0 0-8.267 3.533zm17.969 2.5h-6.2a1 1 0 0 1-.968-1.248l1.57-6.12a1.007 1.007 0 0 1 1.074-.746 27.123 27.123 0 0 1 6.156 1.528 1 1 0 0 1 .612 1.2l-1.28 4.652a1 1 0 0 1-.964.734zm-4.911-2h4.149l.83-3.018a26.831 26.831 0 0 0-3.951-.991zm10.64 2.46-2.389-.01a1 1 0 0 1-.971-1.225l.97-4.2a1 1 0 0 1 1.423-.668 7.627 7.627 0 0 1 3.012 2.772 1 1 0 0 1-.027 1.028l-1.17 1.84a1 1 0 0 1-.848.463zm-1.134-2h.586l.515-.81a5.962 5.962 0 0 0-.737-.764zM38.36 37.88h-6.24a1 1 0 1 1 0-2h6.24a1 1 0 0 1 0 2zM8.645 35.89H5.121a1 1 0 0 1 0-2H8.1l.386-.605H5.908a1 1 0 1 1 0-2h4.4a1 1 0 0 1 .842 1.539l-1.663 2.605a1 1 0 0 1-.842.461z"/>
    </g>
</svg>